<svg width="165" height="50" viewBox="0 0 165 50" fill="none" xmlns="http://www.w3.org/2000/svg">
<rect width="165" height="50" rx="5" fill="url(#paint0_linear_437_309)"/>
<path d="M33.375 27.625V31.125C33.375 31.5891 33.1906 32.0342 32.8624 32.3624C32.5342 32.6906 32.0891 32.875 31.625 32.875H19.375C18.9109 32.875 18.4658 32.6906 18.1376 32.3624C17.8094 32.0342 17.625 31.5891 17.625 31.125V27.625M21.125 23.25L25.5 27.625M25.5 27.625L29.875 23.25M25.5 27.625V17.125" stroke="#0A0D11" stroke-width="2" stroke-linecap="round" stroke-linejoin="round"/>
<path d="M41.68 31V19.8H46.4C47.5947 19.8 48.6453 20.0347 49.552 20.504C50.4693 20.9733 51.1787 21.6293 51.68 22.472C52.192 23.3147 52.448 24.2907 52.448 25.4C52.448 26.5093 52.192 27.4853 51.68 28.328C51.1787 29.1707 50.4693 29.8267 49.552 30.296C48.6453 30.7653 47.5947 31 46.4 31H41.68ZM43.28 29.608H46.304C47.232 29.608 48.032 29.432 48.704 29.08C49.3867 28.728 49.9147 28.2373 50.288 27.608C50.6613 26.968 50.848 26.232 50.848 25.4C50.848 24.5573 50.6613 23.8213 50.288 23.192C49.9147 22.5627 49.3867 22.072 48.704 21.72C48.032 21.368 47.232 21.192 46.304 21.192H43.28V29.608ZM60.6748 31.128C59.8214 31.128 59.0268 30.984 58.2908 30.696C57.5654 30.408 56.9361 30.008 56.4028 29.496C55.8694 28.9733 55.4534 28.3653 55.1548 27.672C54.8561 26.9787 54.7068 26.2213 54.7068 25.4C54.7068 24.5787 54.8561 23.8213 55.1548 23.128C55.4534 22.4347 55.8694 21.832 56.4028 21.32C56.9361 20.7973 57.5654 20.392 58.2908 20.104C59.0161 19.816 59.8108 19.672 60.6748 19.672C61.5281 19.672 62.3121 19.816 63.0268 20.104C63.7521 20.3813 64.3814 20.7813 64.9148 21.304C65.4588 21.816 65.8748 22.4187 66.1628 23.112C66.4614 23.8053 66.6108 24.568 66.6108 25.4C66.6108 26.232 66.4614 26.9947 66.1628 27.688C65.8748 28.3813 65.4588 28.9893 64.9148 29.512C64.3814 30.024 63.7521 30.424 63.0268 30.712C62.3121 30.9893 61.5281 31.128 60.6748 31.128ZM60.6748 29.704C61.2934 29.704 61.8641 29.5973 62.3868 29.384C62.9201 29.1707 63.3788 28.872 63.7628 28.488C64.1574 28.0933 64.4614 27.6347 64.6748 27.112C64.8988 26.5893 65.0108 26.0187 65.0108 25.4C65.0108 24.7813 64.8988 24.2107 64.6748 23.688C64.4614 23.1653 64.1574 22.712 63.7628 22.328C63.3788 21.9333 62.9201 21.6293 62.3868 21.416C61.8641 21.2027 61.2934 21.096 60.6748 21.096C60.0454 21.096 59.4641 21.2027 58.9308 21.416C58.4081 21.6293 57.9494 21.9333 57.5548 22.328C57.1601 22.712 56.8508 23.1653 56.6268 23.688C56.4134 24.2107 56.3068 24.7813 56.3068 25.4C56.3068 26.0187 56.4134 26.5893 56.6268 27.112C56.8508 27.6347 57.1601 28.0933 57.5548 28.488C57.9494 28.872 58.4081 29.1707 58.9308 29.384C59.4641 29.5973 60.0454 29.704 60.6748 29.704ZM71.9929 31L68.2489 19.8H69.8969L73.3369 30.136H72.5049L76.0729 19.8H77.5449L81.0329 30.136H80.2329L83.7209 19.8H85.2409L81.4969 31H79.8169L76.5529 21.416H76.9849L73.7049 31H71.9929ZM87.9181 31V19.8H89.2301L96.6381 29H95.9501V19.8H97.5501V31H96.2381L88.8301 21.8H89.5181V31H87.9181ZM101.623 31V19.8H103.223V29.608H109.287V31H101.623ZM116.695 31.128C115.842 31.128 115.047 30.984 114.311 30.696C113.586 30.408 112.957 30.008 112.423 29.496C111.89 28.9733 111.474 28.3653 111.175 27.672C110.877 26.9787 110.727 26.2213 110.727 25.4C110.727 24.5787 110.877 23.8213 111.175 23.128C111.474 22.4347 111.89 21.832 112.423 21.32C112.957 20.7973 113.586 20.392 114.311 20.104C115.037 19.816 115.831 19.672 116.695 19.672C117.549 19.672 118.333 19.816 119.047 20.104C119.773 20.3813 120.402 20.7813 120.935 21.304C121.479 21.816 121.895 22.4187 122.183 23.112C122.482 23.8053 122.631 24.568 122.631 25.4C122.631 26.232 122.482 26.9947 122.183 27.688C121.895 28.3813 121.479 28.9893 120.935 29.512C120.402 30.024 119.773 30.424 119.047 30.712C118.333 30.9893 117.549 31.128 116.695 31.128ZM116.695 29.704C117.314 29.704 117.885 29.5973 118.407 29.384C118.941 29.1707 119.399 28.872 119.783 28.488C120.178 28.0933 120.482 27.6347 120.695 27.112C120.919 26.5893 121.031 26.0187 121.031 25.4C121.031 24.7813 120.919 24.2107 120.695 23.688C120.482 23.1653 120.178 22.712 119.783 22.328C119.399 21.9333 118.941 21.6293 118.407 21.416C117.885 21.2027 117.314 21.096 116.695 21.096C116.066 21.096 115.485 21.2027 114.951 21.416C114.429 21.6293 113.97 21.9333 113.575 22.328C113.181 22.712 112.871 23.1653 112.647 23.688C112.434 24.2107 112.327 24.7813 112.327 25.4C112.327 26.0187 112.434 26.5893 112.647 27.112C112.871 27.6347 113.181 28.0933 113.575 28.488C113.97 28.872 114.429 29.1707 114.951 29.384C115.485 29.5973 116.066 29.704 116.695 29.704ZM123.945 31L129.017 19.8H130.601L135.689 31H134.009L129.481 20.696H130.121L125.593 31H123.945ZM126.105 28.2L126.537 26.92H132.841L133.305 28.2H126.105ZM138.079 31V19.8H142.799C143.994 19.8 145.045 20.0347 145.951 20.504C146.869 20.9733 147.578 21.6293 148.079 22.472C148.591 23.3147 148.847 24.2907 148.847 25.4C148.847 26.5093 148.591 27.4853 148.079 28.328C147.578 29.1707 146.869 29.8267 145.951 30.296C145.045 30.7653 143.994 31 142.799 31H138.079ZM139.679 29.608H142.703C143.631 29.608 144.431 29.432 145.103 29.08C145.786 28.728 146.314 28.2373 146.687 27.608C147.061 26.968 147.247 26.232 147.247 25.4C147.247 24.5573 147.061 23.8213 146.687 23.192C146.314 22.5627 145.786 22.072 145.103 21.72C144.431 21.368 143.631 21.192 142.703 21.192H139.679V29.608Z" fill="#0A0D11"/>
<rect x="0.5" y="0.5" width="164" height="49" rx="4.5" stroke="url(#paint1_linear_437_309)" stroke-opacity="0.2"/>
<defs>
<linearGradient id="paint0_linear_437_309" x1="157.721" y1="47.0588" x2="94.1625" y2="-52.4652" gradientUnits="userSpaceOnUse">
<stop stop-color="#FFE5A2"/>
<stop offset="0.505208" stop-color="#BF841A"/>
<stop offset="1" stop-color="#FFCD74"/>
</linearGradient>
<linearGradient id="paint1_linear_437_309" x1="165" y1="50" x2="101.525" y2="22.6334" gradientUnits="userSpaceOnUse">
<stop stop-color="#FFDC8F"/>
<stop offset="1" stop-opacity="0"/>
</linearGradient>
</defs>
</svg>
