<svg width="180" height="54" viewBox="0 0 180 54" fill="none" xmlns="http://www.w3.org/2000/svg">
<path d="M38.788 33L34.576 20.4H36.43L40.3 32.028H39.364L43.378 20.4H45.034L48.958 32.028H48.058L51.982 20.4H53.692L49.48 33H47.59L43.918 22.218H44.404L40.714 33H38.788ZM64.1413 33.144C63.1813 33.144 62.2873 32.982 61.4593 32.658C60.6433 32.334 59.9353 31.884 59.3353 31.308C58.7353 30.72 58.2673 30.036 57.9313 29.256C57.5953 28.476 57.4273 27.624 57.4273 26.7C57.4273 25.776 57.5953 24.924 57.9313 24.144C58.2673 23.364 58.7353 22.686 59.3353 22.11C59.9353 21.522 60.6433 21.066 61.4593 20.742C62.2753 20.418 63.1693 20.256 64.1413 20.256C65.1013 20.256 65.9833 20.418 66.7873 20.742C67.6033 21.054 68.3113 21.504 68.9113 22.092C69.5233 22.668 69.9913 23.346 70.3153 24.126C70.6513 24.906 70.8193 25.764 70.8193 26.7C70.8193 27.636 70.6513 28.494 70.3153 29.274C69.9913 30.054 69.5233 30.738 68.9113 31.326C68.3113 31.902 67.6033 32.352 66.7873 32.676C65.9833 32.988 65.1013 33.144 64.1413 33.144ZM64.1413 31.542C64.8373 31.542 65.4793 31.422 66.0673 31.182C66.6673 30.942 67.1833 30.606 67.6153 30.174C68.0593 29.73 68.4013 29.214 68.6413 28.626C68.8933 28.038 69.0193 27.396 69.0193 26.7C69.0193 26.004 68.8933 25.362 68.6413 24.774C68.4013 24.186 68.0593 23.676 67.6153 23.244C67.1833 22.8 66.6673 22.458 66.0673 22.218C65.4793 21.978 64.8373 21.858 64.1413 21.858C63.4333 21.858 62.7793 21.978 62.1793 22.218C61.5913 22.458 61.0753 22.8 60.6313 23.244C60.1873 23.676 59.8393 24.186 59.5873 24.774C59.3473 25.362 59.2273 26.004 59.2273 26.7C59.2273 27.396 59.3473 28.038 59.5873 28.626C59.8393 29.214 60.1873 29.73 60.6313 30.174C61.0753 30.606 61.5913 30.942 62.1793 31.182C62.7793 31.422 63.4333 31.542 64.1413 31.542ZM76.2705 33V20.4H81.1845C82.2885 20.4 83.2305 20.574 84.0105 20.922C84.7905 21.27 85.3905 21.774 85.8105 22.434C86.2305 23.094 86.4405 23.88 86.4405 24.792C86.4405 25.704 86.2305 26.49 85.8105 27.15C85.3905 27.798 84.7905 28.296 84.0105 28.644C83.2305 28.992 82.2885 29.166 81.1845 29.166H77.2605L78.0705 28.338V33H76.2705ZM84.6945 33L81.4905 28.428H83.4165L86.6565 33H84.6945ZM78.0705 28.518L77.2605 27.636H81.1305C82.2825 27.636 83.1525 27.39 83.7405 26.898C84.3405 26.394 84.6405 25.692 84.6405 24.792C84.6405 23.892 84.3405 23.196 83.7405 22.704C83.1525 22.212 82.2825 21.966 81.1305 21.966H77.2605L78.0705 21.066V28.518ZM93.6326 29.958L93.5426 27.762L100.689 20.4H102.741L97.2146 26.232L96.2066 27.348L93.6326 29.958ZM92.0486 33V20.4H93.8486V33H92.0486ZM100.977 33L95.8106 26.988L97.0166 25.656L103.083 33H100.977ZM111.094 33.144C110.134 33.144 109.216 33 108.34 32.712C107.464 32.412 106.774 32.028 106.27 31.56L106.936 30.156C107.416 30.576 108.028 30.924 108.772 31.2C109.516 31.476 110.29 31.614 111.094 31.614C111.826 31.614 112.42 31.53 112.876 31.362C113.332 31.194 113.668 30.966 113.884 30.678C114.1 30.378 114.208 30.042 114.208 29.67C114.208 29.238 114.064 28.89 113.776 28.626C113.5 28.362 113.134 28.152 112.678 27.996C112.234 27.828 111.742 27.684 111.202 27.564C110.662 27.444 110.116 27.306 109.564 27.15C109.024 26.982 108.526 26.772 108.07 26.52C107.626 26.268 107.266 25.932 106.99 25.512C106.714 25.08 106.576 24.528 106.576 23.856C106.576 23.208 106.744 22.614 107.08 22.074C107.428 21.522 107.956 21.084 108.664 20.76C109.384 20.424 110.296 20.256 111.4 20.256C112.132 20.256 112.858 20.352 113.578 20.544C114.298 20.736 114.922 21.012 115.45 21.372L114.856 22.812C114.316 22.452 113.746 22.194 113.146 22.038C112.546 21.87 111.964 21.786 111.4 21.786C110.692 21.786 110.11 21.876 109.654 22.056C109.198 22.236 108.862 22.476 108.646 22.776C108.442 23.076 108.34 23.412 108.34 23.784C108.34 24.228 108.478 24.582 108.754 24.846C109.042 25.11 109.408 25.32 109.852 25.476C110.308 25.632 110.806 25.776 111.346 25.908C111.886 26.028 112.426 26.166 112.966 26.322C113.518 26.478 114.016 26.682 114.46 26.934C114.916 27.186 115.282 27.522 115.558 27.942C115.834 28.362 115.972 28.902 115.972 29.562C115.972 30.198 115.798 30.792 115.45 31.344C115.102 31.884 114.562 32.322 113.83 32.658C113.11 32.982 112.198 33.144 111.094 33.144Z" fill="url(#paint0_linear_171_51)"/>
<g clip-path="url(#clip0_171_51)">
<path d="M130.25 24.375L135.5 29.625L140.75 24.375" stroke="url(#paint1_linear_171_51)" stroke-width="2" stroke-linecap="round" stroke-linejoin="round"/>
</g>
<path d="M0.5 0.5H179.5V53.5H0.5V0.5Z" stroke="url(#paint2_linear_171_51)"/>
<path d="M0.5 0.5H179.5V53.5H0.5V0.5Z" stroke="url(#paint3_linear_171_51)" stroke-opacity="0.2"/>
<defs>
<linearGradient id="paint0_linear_171_51" x1="113.338" y1="49.0588" x2="45.2304" y2="-4.58852" gradientUnits="userSpaceOnUse">
<stop stop-color="#FFE5A2"/>
<stop offset="0.505208" stop-color="#BF841A"/>
<stop offset="1" stop-color="#FFCD74"/>
</linearGradient>
<linearGradient id="paint1_linear_171_51" x1="140.287" y1="29.3162" x2="132.941" y2="22.3448" gradientUnits="userSpaceOnUse">
<stop stop-color="#FFE5A2"/>
<stop offset="0.505208" stop-color="#BF841A"/>
<stop offset="1" stop-color="#FFCD74"/>
</linearGradient>
<linearGradient id="paint2_linear_171_51" x1="-9.10112" y1="-4.5" x2="6.32613" y2="50.1329" gradientUnits="userSpaceOnUse">
<stop stop-color="#FFE195"/>
<stop offset="0.177083" stop-color="#F2BB5A" stop-opacity="0.876812"/>
<stop offset="0.359375" stop-color="#BF7A00" stop-opacity="0.75"/>
<stop offset="1" stop-color="#BF7A00" stop-opacity="0"/>
<stop offset="1" stop-color="#0F1218" stop-opacity="0"/>
</linearGradient>
<linearGradient id="paint3_linear_171_51" x1="155.094" y1="62.5909" x2="108.025" y2="28.2035" gradientUnits="userSpaceOnUse">
<stop stop-color="#8FA8FF"/>
<stop offset="1" stop-opacity="0"/>
</linearGradient>
<clipPath id="clip0_171_51">
<rect width="21" height="21" fill="white" transform="translate(125 16.5)"/>
</clipPath>
</defs>
</svg>
