<svg width="241" height="22" viewBox="0 0 241 22" fill="none" xmlns="http://www.w3.org/2000/svg">
<path d="M0.324 21V1.4H4.86V17.304H14.688V21H0.324ZM22.2344 9.296H31.6704V12.824H22.2344V9.296ZM22.5704 17.36H33.2384V21H18.0624V1.4H32.8744V5.04H22.5704V17.36ZM41.7476 21V5.096H35.4756V1.4H52.5556V5.096H46.2836V21H41.7476ZM55.4284 9.52L57.2764 2.8L57.8924 5.348C57.0898 5.348 56.4271 5.11467 55.9044 4.648C55.4004 4.16267 55.1484 3.50933 55.1484 2.688C55.1484 1.88533 55.4098 1.24133 55.9324 0.755999C56.4551 0.251998 57.0991 -1.66893e-06 57.8644 -1.66893e-06C58.6484 -1.66893e-06 59.2924 0.251998 59.7964 0.755999C60.3004 1.24133 60.5524 1.88533 60.5524 2.688C60.5524 2.93067 60.5338 3.17333 60.4964 3.416C60.4778 3.64 60.4124 3.91067 60.3004 4.228C60.2071 4.54533 60.0484 4.96533 59.8244 5.488L58.2004 9.52H55.4284ZM71.374 21.336C69.806 21.336 68.3033 21.1307 66.866 20.72C65.4287 20.2907 64.2713 19.74 63.394 19.068L64.934 15.652C65.774 16.2493 66.7633 16.744 67.902 17.136C69.0593 17.5093 70.226 17.696 71.402 17.696C72.298 17.696 73.0167 17.612 73.558 17.444C74.118 17.2573 74.5287 17.0053 74.79 16.688C75.0513 16.3707 75.182 16.0067 75.182 15.596C75.182 15.0733 74.9767 14.6627 74.566 14.364C74.1553 14.0467 73.614 13.7947 72.942 13.608C72.27 13.4027 71.5233 13.216 70.702 13.048C69.8993 12.8613 69.0873 12.6373 68.266 12.376C67.4633 12.1147 66.726 11.7787 66.054 11.368C65.382 10.9573 64.8313 10.416 64.402 9.744C63.9913 9.072 63.786 8.21333 63.786 7.168C63.786 6.048 64.0847 5.03067 64.682 4.116C65.298 3.18267 66.2127 2.44533 67.426 1.904C68.658 1.344 70.198 1.064 72.046 1.064C73.278 1.064 74.4913 1.21333 75.686 1.512C76.8807 1.792 77.9353 2.22133 78.85 2.8L77.45 6.244C76.5353 5.72133 75.6207 5.33867 74.706 5.096C73.7913 4.83467 72.8953 4.704 72.018 4.704C71.1407 4.704 70.422 4.80667 69.862 5.012C69.302 5.21733 68.9007 5.488 68.658 5.824C68.4153 6.14133 68.294 6.51467 68.294 6.944C68.294 7.448 68.4993 7.85867 68.91 8.176C69.3207 8.47467 69.862 8.71733 70.534 8.904C71.206 9.09067 71.9433 9.27733 72.746 9.464C73.5673 9.65067 74.3793 9.86533 75.182 10.108C76.0033 10.3507 76.75 10.6773 77.422 11.088C78.094 11.4987 78.6353 12.04 79.046 12.712C79.4753 13.384 79.69 14.2333 79.69 15.26C79.69 16.3613 79.382 17.3693 78.766 18.284C78.15 19.1987 77.226 19.936 75.994 20.496C74.7807 21.056 73.2407 21.336 71.374 21.336ZM101.779 21.336C100.267 21.336 98.8578 21.0933 97.5512 20.608C96.2632 20.104 95.1432 19.3947 94.1912 18.48C93.2392 17.5653 92.4925 16.492 91.9512 15.26C91.4285 14.028 91.1672 12.6747 91.1672 11.2C91.1672 9.72533 91.4285 8.372 91.9512 7.14C92.4925 5.908 93.2392 4.83467 94.1912 3.92C95.1618 3.00533 96.2912 2.30533 97.5792 1.82C98.8672 1.316 100.276 1.064 101.807 1.064C103.506 1.064 105.036 1.36267 106.399 1.96C107.78 2.53867 108.938 3.39733 109.871 4.536L106.959 7.224C106.287 6.45867 105.54 5.88933 104.719 5.516C103.898 5.124 103.002 4.928 102.031 4.928C101.116 4.928 100.276 5.07733 99.5112 5.376C98.7458 5.67467 98.0832 6.104 97.5232 6.664C96.9632 7.224 96.5245 7.88667 96.2072 8.652C95.9085 9.41733 95.7592 10.2667 95.7592 11.2C95.7592 12.1333 95.9085 12.9827 96.2072 13.748C96.5245 14.5133 96.9632 15.176 97.5232 15.736C98.0832 16.296 98.7458 16.7253 99.5112 17.024C100.276 17.3227 101.116 17.472 102.031 17.472C103.002 17.472 103.898 17.2853 104.719 16.912C105.54 16.52 106.287 15.932 106.959 15.148L109.871 17.836C108.938 18.9747 107.78 19.8427 106.399 20.44C105.036 21.0373 103.496 21.336 101.779 21.336ZM122.884 21.336C121.335 21.336 119.897 21.084 118.572 20.58C117.265 20.076 116.127 19.3667 115.156 18.452C114.204 17.5373 113.457 16.464 112.916 15.232C112.393 14 112.132 12.656 112.132 11.2C112.132 9.744 112.393 8.4 112.916 7.168C113.457 5.936 114.213 4.86267 115.184 3.948C116.155 3.03333 117.293 2.324 118.6 1.82C119.907 1.316 121.325 1.064 122.856 1.064C124.405 1.064 125.824 1.316 127.112 1.82C128.419 2.324 129.548 3.03333 130.5 3.948C131.471 4.86267 132.227 5.936 132.768 7.168C133.309 8.38133 133.58 9.72533 133.58 11.2C133.58 12.656 133.309 14.0093 132.768 15.26C132.227 16.492 131.471 17.5653 130.5 18.48C129.548 19.376 128.419 20.076 127.112 20.58C125.824 21.084 124.415 21.336 122.884 21.336ZM122.856 17.472C123.733 17.472 124.536 17.3227 125.264 17.024C126.011 16.7253 126.664 16.296 127.224 15.736C127.784 15.176 128.213 14.5133 128.512 13.748C128.829 12.9827 128.988 12.1333 128.988 11.2C128.988 10.2667 128.829 9.41733 128.512 8.652C128.213 7.88667 127.784 7.224 127.224 6.664C126.683 6.104 126.039 5.67467 125.292 5.376C124.545 5.07733 123.733 4.928 122.856 4.928C121.979 4.928 121.167 5.07733 120.42 5.376C119.692 5.67467 119.048 6.104 118.488 6.664C117.928 7.224 117.489 7.88667 117.172 8.652C116.873 9.41733 116.724 10.2667 116.724 11.2C116.724 12.1147 116.873 12.964 117.172 13.748C117.489 14.5133 117.919 15.176 118.46 15.736C119.02 16.296 119.673 16.7253 120.42 17.024C121.167 17.3227 121.979 17.472 122.856 17.472ZM137.829 21V1.4H141.581L153.145 15.512H151.325V1.4H155.805V21H152.081L140.489 6.888H142.309V21H137.829ZM161.282 21V1.4H165.034L176.598 15.512H174.778V1.4H179.258V21H175.534L163.942 6.888H165.762V21H161.282ZM188.908 9.296H198.344V12.824H188.908V9.296ZM189.244 17.36H199.912V21H184.736V1.4H199.548V5.04H189.244V17.36ZM213.741 21.336C212.229 21.336 210.82 21.0933 209.513 20.608C208.225 20.104 207.105 19.3947 206.153 18.48C205.201 17.5653 204.454 16.492 203.913 15.26C203.39 14.028 203.129 12.6747 203.129 11.2C203.129 9.72533 203.39 8.372 203.913 7.14C204.454 5.908 205.201 4.83467 206.153 3.92C207.124 3.00533 208.253 2.30533 209.541 1.82C210.829 1.316 212.238 1.064 213.769 1.064C215.468 1.064 216.998 1.36267 218.361 1.96C219.742 2.53867 220.9 3.39733 221.833 4.536L218.921 7.224C218.249 6.45867 217.502 5.88933 216.681 5.516C215.86 5.124 214.964 4.928 213.993 4.928C213.078 4.928 212.238 5.07733 211.473 5.376C210.708 5.67467 210.045 6.104 209.485 6.664C208.925 7.224 208.486 7.88667 208.169 8.652C207.87 9.41733 207.721 10.2667 207.721 11.2C207.721 12.1333 207.87 12.9827 208.169 13.748C208.486 14.5133 208.925 15.176 209.485 15.736C210.045 16.296 210.708 16.7253 211.473 17.024C212.238 17.3227 213.078 17.472 213.993 17.472C214.964 17.472 215.86 17.2853 216.681 16.912C217.502 16.52 218.249 15.932 218.921 15.148L221.833 17.836C220.9 18.9747 219.742 19.8427 218.361 20.44C216.998 21.0373 215.458 21.336 213.741 21.336ZM229.605 21V5.096H223.333V1.4H240.413V5.096H234.141V21H229.605Z" fill="url(#paint0_linear_326_194)"/>
<defs>
<linearGradient id="paint0_linear_326_194" x1="230.279" y1="33.0588" x2="179.138" y2="-84.8783" gradientUnits="userSpaceOnUse">
<stop stop-color="#FFE5A2"/>
<stop offset="0.505208" stop-color="#BF841A"/>
<stop offset="1" stop-color="#FFCD74"/>
</linearGradient>
</defs>
</svg>
