<svg width="550" height="136" viewBox="0 0 550 136" fill="none" xmlns="http://www.w3.org/2000/svg">
<path d="M31.952 0.903999H32.784C34.512 0.903999 36.048 3.016 35.024 4.808L25.104 22.216L15.696 4.872C14.736 3.016 16.08 0.839996 17.936 0.839996H18.768V0.199997H0.784V0.839996H1.616C4.304 0.839996 6.8 2.632 8.08 4.552L20.24 24.84V40.392C20.176 42.632 18.384 44.36 16.144 44.36H15.312V45H31.568V44.36H30.736C28.496 44.36 26.704 42.568 26.64 40.392V24.904L39.312 4.616C40.656 2.632 43.024 0.903999 45.712 0.903999H46.608V0.199997H31.952V0.903999ZM75.823 34.76C74.031 39.56 71.215 42.76 65.391 42.824H56.303V27.016H65.903C68.079 27.08 69.295 28.68 69.295 30.664V31.304L69.999 31.368V20.488H69.295V21.128C69.295 23.176 68.015 24.776 65.775 24.776H56.303V8.84H67.951C70.575 8.904 72.239 10.696 72.239 13.256V14.088H72.879V5.64C71.791 6.024 68.463 6.6 65.967 6.6H45.679V7.24H46.511C48.495 7.24 50.095 8.712 50.095 10.632V41.032C50.031 42.888 48.495 44.36 46.511 44.36H45.679V45H73.391L76.463 34.76H75.823ZM107.293 6.6H85.2765V6.536C82.8445 6.536 79.4525 6.024 78.3645 5.576V14.024L79.0045 13.96V13.192C79.0045 10.632 80.6045 8.776 83.2925 8.776H93.1485V40.968C93.0845 42.888 91.4845 44.424 89.5005 44.424H88.7965V45.064H103.837V44.424H103.069C101.085 44.424 99.4845 42.888 99.4205 41.032V8.776H109.277C111.965 8.776 113.565 10.632 113.565 13.192V13.96L114.269 14.024V5.576C113.245 6.024 109.789 6.536 107.293 6.536V6.6ZM159.575 6.6H137.559V6.536C135.127 6.536 131.735 6.024 130.647 5.576V14.024L131.287 13.96V13.192C131.287 10.632 132.887 8.776 135.575 8.776H145.431V40.968C145.367 42.888 143.767 44.424 141.783 44.424H141.079V45.064H156.119V44.424H155.351C153.367 44.424 151.767 42.888 151.703 41.032V8.776H161.559C164.247 8.776 165.847 10.632 165.847 13.192V13.96L166.551 14.024V5.576C165.527 6.024 162.071 6.536 159.575 6.536V6.6ZM207.564 10.696C207.564 8.776 209.164 7.24 211.148 7.24H211.916V6.6H196.94L197.004 7.24H197.708C199.692 7.24 201.292 8.776 201.356 10.696V24.904H180.492V10.632C180.556 8.712 182.156 7.24 184.14 7.24H184.844V6.6H169.932V7.24H170.636C172.62 7.24 174.284 8.776 174.284 10.696V40.968C174.284 42.888 172.62 44.424 170.636 44.424L169.932 44.36V45H184.844V44.36L184.14 44.424C182.156 44.424 180.556 42.888 180.492 40.968V27.08H201.356V40.968C201.292 42.888 199.692 44.424 197.708 44.424H197.004L196.94 45.064H211.916V44.424H211.148C209.164 44.424 207.564 42.888 207.5 41.032V10.696H207.564ZM247.123 34.76C245.331 39.56 242.515 42.76 236.691 42.824H227.603V27.016H237.203C239.379 27.08 240.595 28.68 240.595 30.664V31.304L241.299 31.368V20.488H240.595V21.128C240.595 23.176 239.315 24.776 237.075 24.776H227.603V8.84H239.251C241.875 8.904 243.539 10.696 243.539 13.256V14.088H244.179V5.64C243.091 6.024 239.763 6.6 237.267 6.6H216.979V7.24H217.811C219.795 7.24 221.395 8.712 221.395 10.632V41.032C221.331 42.888 219.795 44.36 217.811 44.36H216.979V45H244.691L247.763 34.76H247.123ZM276.226 18.632C274.05 17.16 272.962 15.496 273.026 13.576C273.09 10.376 276.226 7.944 280.45 7.944C285.506 7.944 288.066 10.248 288.066 13.896H288.706L288.962 7.496L289.026 6.344H286.338C284.418 6.024 281.794 5.768 279.17 5.768C273.026 5.768 268.418 9.672 268.226 15.24C268.034 18.376 269.186 21.512 272.322 23.624L283.65 31.816C286.018 33.416 286.978 35.08 286.978 37.192C286.978 40.904 284.098 43.592 278.914 43.72C272.77 43.848 268.802 39.816 269.25 34.056H268.61C267.458 36.488 267.01 40.712 267.65 42.696C269.826 44.744 274.498 45.896 279.042 45.896C286.402 45.896 291.778 41.416 291.906 35.08C291.97 31.752 290.562 28.744 288.002 27.08L276.226 18.632ZM323.937 6.6H301.921V6.536C299.489 6.536 296.097 6.024 295.009 5.576V14.024L295.649 13.96V13.192C295.649 10.632 297.249 8.776 299.937 8.776H309.793V40.968C309.729 42.888 308.129 44.424 306.145 44.424H305.441V45.064H320.481V44.424H319.713C317.729 44.424 316.129 42.888 316.065 41.032V8.776H325.921C328.609 8.776 330.209 10.632 330.209 13.192V13.96L330.913 14.024V5.576C329.889 6.024 326.433 6.536 323.937 6.536V6.6ZM354.493 5.768C341.885 5.768 332.477 13.768 332.477 25.864C332.477 37.896 341.885 45.896 354.493 45.896C367.101 45.896 376.573 37.896 376.573 25.864C376.573 13.768 367.101 5.768 354.493 5.768ZM354.493 43.72C345.789 43.72 339.325 36.68 339.325 25.864C339.325 14.984 345.789 7.944 354.493 7.944C363.261 7.944 369.725 14.984 369.725 25.864C369.725 36.68 363.261 43.72 354.493 43.72ZM413.035 39.752C410.539 36.744 408.043 33.096 407.851 32.712C406.507 30.728 404.267 28.168 402.411 27.528C408.363 26.76 411.883 22.088 411.883 17.032C411.883 9.928 406.187 6.664 398.507 6.664H380.971V7.304H381.803C383.787 7.304 385.259 8.712 385.323 10.632V41.032C385.259 42.952 383.723 44.424 381.803 44.424H380.971V45.064H395.883V44.424H395.115C393.195 44.424 391.595 42.952 391.531 40.968V8.904C392.107 8.904 394.539 8.776 397.355 8.968C401.323 9.16 404.971 11.144 405.163 16.584C405.227 17.928 405.035 19.08 404.843 19.848C403.307 25.224 399.723 25.608 396.587 25.736C394.923 25.736 393.707 25.736 393.707 25.736V26.312C395.691 26.312 397.675 28.04 399.147 30.408C399.659 31.688 403.563 37.768 404.587 39.176C407.019 42.568 410.027 45 417.003 45H420.395V44.36C417.259 44.36 415.595 42.824 413.035 39.752ZM443.985 7.24H444.689C446.417 7.24 447.505 8.84 446.865 10.376L437.457 26.184L428.497 10.376C427.921 8.84 428.945 7.24 430.609 7.24H431.313V6.6H414.609V7.24H415.377C417.809 7.24 419.921 8.584 421.137 10.44H421.201L432.785 28.616V40.968C432.721 42.888 431.121 44.36 429.137 44.36H428.369V45H443.409V44.36H442.705C440.721 44.36 439.057 42.888 438.993 40.968V28.68L450.897 10.504H450.961C452.177 8.776 454.289 7.24 456.721 7.24H457.489V6.6H443.985V7.24ZM495.933 5.768C483.325 5.768 473.917 13.768 473.917 25.864C473.917 37.896 483.325 45.896 495.933 45.896C508.541 45.896 518.013 37.896 518.013 25.864C518.013 13.768 508.541 5.768 495.933 5.768ZM495.933 43.72C487.229 43.72 480.765 36.68 480.765 25.864C480.765 14.984 487.229 7.944 495.933 7.944C504.701 7.944 511.165 14.984 511.165 25.864C511.165 36.68 504.701 43.72 495.933 43.72ZM542.635 6.664H522.219V7.304H523.051C525.099 7.304 526.635 8.712 526.699 10.632V41.032C526.635 42.888 525.099 44.424 523.051 44.424L522.219 44.36V45H537.387V44.36L536.555 44.424C534.507 44.424 532.971 42.888 532.907 40.968V27.016H542.571C544.811 27.08 546.027 28.68 546.027 30.664V31.304L546.667 31.368V20.488H546.027V21.128C546.027 23.176 544.747 24.776 542.443 24.776H532.907V8.84H544.619C547.307 8.904 548.971 10.696 548.971 13.256V14.088H549.611V5.64C548.523 6.024 545.131 6.6 542.635 6.6V6.664ZM34.93 81.164C16.578 81.164 5.108 91.376 5.108 108.1C5.108 124.898 16.578 135.036 34.93 135.036C53.356 135.036 64.826 124.898 64.826 108.1C64.826 91.376 53.356 81.164 34.93 81.164ZM34.93 131.706C25.162 131.706 19.168 122.826 19.168 108.174C19.168 93.448 25.162 84.568 34.93 84.568C44.772 84.568 50.766 93.448 50.766 108.174C50.766 122.826 44.772 131.706 34.93 131.706ZM145.19 128.45C142.674 124.972 140.898 121.568 140.084 120.162C138.752 117.868 135.866 114.612 132.536 113.724C140.01 112.54 142.452 106.694 142.452 101.81C142.452 92.042 133.868 89.674 125.95 89.674H101.974V90.414H102.936C105.008 90.414 106.71 92.042 106.71 94.262V129.412C106.71 131.632 104.934 133.334 102.862 133.334H101.974V134.074H123.952V133.334H123.138C121.362 133.334 119.216 131.928 119.216 129.412V92.93C120.252 92.93 120.992 92.856 122.176 92.93C123.73 93.004 129.058 93.374 129.428 101.218C129.502 102.624 129.354 103.512 129.28 103.956C128.318 110.172 125.284 111.652 122.546 111.726C121.806 111.726 121.362 111.726 121.362 111.726V112.318C122.25 112.392 123.878 113.428 124.84 116.684C125.58 119.718 127.282 123.64 129.132 126.748C133.054 133.112 136.976 134 144.968 134H152.294V133.26C149.556 133.26 148.002 132.52 145.19 128.45ZM223.777 101.736C223.481 95.15 218.819 89.6 206.535 89.6H183.299V90.34H184.113C186.259 90.34 188.035 91.968 188.035 94.188V129.412C188.035 131.632 186.333 133.334 184.187 133.334H183.373V134H205.277V133.26H204.463C202.169 133.26 200.541 131.632 200.467 129.412V92.782H202.761C207.645 92.782 210.605 96.112 210.827 101.292C210.827 102.402 210.679 103.882 210.383 105.214C208.607 112.836 202.687 112.688 202.687 112.688V113.28C212.307 120.31 224.443 113.65 223.777 101.736ZM306.637 94.262C306.637 92.042 308.413 90.34 310.559 90.34H311.373V89.6H289.395V90.34H290.209C292.429 90.34 294.131 92.042 294.205 94.262V110.32H277.037V94.262C277.111 92.042 278.887 90.34 281.033 90.34H281.847V89.6H259.869V90.34H260.683C262.829 90.34 264.605 92.042 264.605 94.262V129.412C264.605 131.632 262.829 133.26 260.683 133.26H259.869V134H281.847V133.26H281.033C278.813 133.26 277.111 131.632 277.037 129.412V113.428H294.205V129.412C294.131 131.632 292.429 133.26 290.209 133.26H289.469L289.395 134H311.373V133.26H310.485C308.339 133.26 306.637 131.632 306.563 129.412V94.262H306.637ZM385.532 119.57C383.608 126.6 378.798 130.818 372.804 130.818H364.664V113.65H371.916C375.764 113.798 378.28 116.536 378.28 120.31V120.754H379.02V103.512H378.28V103.882C378.28 107.656 375.764 110.394 371.842 110.468H364.664V92.856H373.988C378.872 92.856 381.61 95.89 381.61 100.774V101.292H382.35V88.49C381.166 88.934 377.54 89.6 374.802 89.6H347.496V90.34H348.31C350.456 90.34 352.232 92.042 352.232 94.262V129.412C352.232 131.632 350.456 133.26 348.31 133.26H347.496V134H383.682L386.198 119.57H385.532ZM471.174 89.6H461.702H457.188V90.266H458.224C460 90.266 461.48 91.598 461.554 93.448V118.386C461.48 126.748 457.188 131.78 449.936 131.78C442.758 131.78 438.54 126.452 438.54 117.572V93.448C438.54 91.598 440.02 90.266 441.796 90.266H442.906V89.6H421.816V90.266H422.778C424.628 90.266 426.108 91.598 426.108 93.448V117.868C426.108 128.524 433.064 134.962 448.16 134.962C460.148 134.962 466.808 128.45 466.808 117.72V93.448C466.882 91.598 468.362 90.266 470.138 90.266H471.174V89.6ZM523.571 103.142C520.537 101.736 517.947 100.256 518.243 97.296C518.465 94.04 521.351 91.894 526.087 91.894C532.007 91.894 535.485 95.002 535.485 99.59H536.003L537.187 90.636L537.409 89.378H532.969C529.417 89.008 524.829 88.712 522.609 88.712C514.913 88.712 509.807 92.708 508.919 100.034C508.253 105.88 510.843 110.69 516.393 113.354L525.643 118.608C530.231 120.754 532.007 122.9 532.007 125.49C532.007 128.82 529.491 131.78 523.867 131.78C515.505 131.78 510.695 125.712 511.065 118.978H510.547C508.549 121.79 507.291 127.784 508.623 130.892C510.621 133.186 515.579 134.962 522.535 134.962C533.709 134.962 540.591 130.004 541.183 121.124C541.627 115.13 538.667 111.134 534.301 109.062L523.571 103.142Z" fill="url(#paint0_linear_171_49)"/>
<defs>
<linearGradient id="paint0_linear_171_49" x1="529.647" y1="139.118" x2="315.703" y2="-194.441" gradientUnits="userSpaceOnUse">
<stop stop-color="#FFE5A2"/>
<stop offset="0.505208" stop-color="#BF841A"/>
<stop offset="1" stop-color="#FFCD74"/>
</linearGradient>
</defs>
</svg>
