<svg width="566" height="31" viewBox="0 0 566 31" fill="none" xmlns="http://www.w3.org/2000/svg">
<path d="M11.3213 30.504C9.27726 30.504 7.24726 30.238 5.23126 29.706C3.21526 29.146 1.50726 28.362 0.107261 27.354L2.75326 22.146C3.87326 22.958 5.17526 23.602 6.65926 24.078C8.14326 24.554 9.64126 24.792 11.1533 24.792C12.8613 24.792 14.2053 24.456 15.1853 23.784C16.1653 23.112 16.6553 22.188 16.6553 21.012C16.6553 19.892 16.2213 19.01 15.3533 18.366C14.4853 17.722 13.0853 17.4 11.1533 17.4H8.04526V12.906L16.2353 3.624L16.9913 6.06H1.57726V0.599998H22.1573V5.01L14.0093 14.292L10.5653 12.318H12.5393C16.1513 12.318 18.8813 13.13 20.7293 14.754C22.5773 16.378 23.5013 18.464 23.5013 21.012C23.5013 22.664 23.0673 24.218 22.1993 25.674C21.3313 27.102 20.0013 28.264 18.2093 29.16C16.4173 30.056 14.1213 30.504 11.3213 30.504ZM29.9607 30V0.599998H43.3167C46.5087 0.599998 49.3227 1.216 51.7587 2.448C54.1947 3.652 56.0987 5.346 57.4707 7.53C58.8427 9.714 59.5287 12.304 59.5287 15.3C59.5287 18.268 58.8427 20.858 57.4707 23.07C56.0987 25.254 54.1947 26.962 51.7587 28.194C49.3227 29.398 46.5087 30 43.3167 30H29.9607ZM36.7647 24.414H42.9807C44.9407 24.414 46.6347 24.05 48.0627 23.322C49.5187 22.566 50.6387 21.502 51.4227 20.13C52.2347 18.758 52.6407 17.148 52.6407 15.3C52.6407 13.424 52.2347 11.814 51.4227 10.47C50.6387 9.098 49.5187 8.048 48.0627 7.32C46.6347 6.564 44.9407 6.186 42.9807 6.186H36.7647V24.414ZM93.6905 30.504C91.3665 30.504 89.2245 30.14 87.2645 29.412C85.3325 28.656 83.6385 27.592 82.1825 26.22C80.7545 24.848 79.6345 23.238 78.8225 21.39C78.0385 19.542 77.6465 17.512 77.6465 15.3C77.6465 13.088 78.0385 11.058 78.8225 9.21C79.6345 7.362 80.7685 5.752 82.2245 4.38C83.6805 3.008 85.3885 1.958 87.3485 1.23C89.3085 0.473999 91.4645 0.0959995 93.8165 0.0959995C96.4205 0.0959995 98.7585 0.529999 100.83 1.398C102.93 2.266 104.694 3.526 106.122 5.178L101.754 9.21C100.69 8.09 99.5285 7.264 98.2685 6.732C97.0085 6.172 95.6365 5.892 94.1525 5.892C92.7245 5.892 91.4225 6.116 90.2465 6.564C89.0705 7.012 88.0485 7.656 87.1805 8.496C86.3405 9.336 85.6825 10.33 85.2065 11.478C84.7585 12.626 84.5345 13.9 84.5345 15.3C84.5345 16.672 84.7585 17.932 85.2065 19.08C85.6825 20.228 86.3405 21.236 87.1805 22.104C88.0485 22.944 89.0565 23.588 90.2045 24.036C91.3805 24.484 92.6685 24.708 94.0685 24.708C95.4125 24.708 96.7145 24.498 97.9745 24.078C99.2625 23.63 100.508 22.888 101.712 21.852L105.576 26.766C103.98 27.97 102.118 28.894 99.9905 29.538C97.8905 30.182 95.7905 30.504 93.6905 30.504ZM99.3605 25.884V14.838H105.576V26.766L99.3605 25.884ZM113.367 30V0.599998H126.093C128.725 0.599998 130.993 1.034 132.897 1.902C134.801 2.742 136.271 3.96 137.307 5.556C138.343 7.152 138.861 9.056 138.861 11.268C138.861 13.452 138.343 15.342 137.307 16.938C136.271 18.506 134.801 19.71 132.897 20.55C130.993 21.39 128.725 21.81 126.093 21.81H117.147L120.171 18.828V30H113.367ZM132.057 30L124.707 19.332H131.973L139.407 30H132.057ZM120.171 19.584L117.147 16.392H125.715C127.815 16.392 129.383 15.944 130.419 15.048C131.455 14.124 131.973 12.864 131.973 11.268C131.973 9.644 131.455 8.384 130.419 7.488C129.383 6.592 127.815 6.144 125.715 6.144H117.147L120.171 2.91V19.584ZM151.98 12.444H166.134V17.736H151.98V12.444ZM152.484 24.54H168.486V30H145.722V0.599998H167.94V6.06H152.484V24.54ZM181.627 12.444H195.781V17.736H181.627V12.444ZM182.131 24.54H198.133V30H175.369V0.599998H197.587V6.06H182.131V24.54ZM211.107 23.28L210.729 15.426L224.799 0.599998H232.359L219.675 14.25L215.895 18.282L211.107 23.28ZM205.017 30V0.599998H211.779V30H205.017ZM225.135 30L214.677 17.19L219.129 12.36L233.073 30H225.135ZM260.601 30.504C258.249 30.504 255.995 30.196 253.839 29.58C251.683 28.936 249.947 28.11 248.631 27.102L250.941 21.978C252.201 22.874 253.685 23.616 255.393 24.204C257.129 24.764 258.879 25.044 260.643 25.044C261.987 25.044 263.065 24.918 263.877 24.666C264.717 24.386 265.333 24.008 265.725 23.532C266.117 23.056 266.313 22.51 266.313 21.894C266.313 21.11 266.005 20.494 265.389 20.046C264.773 19.57 263.961 19.192 262.953 18.912C261.945 18.604 260.825 18.324 259.593 18.072C258.389 17.792 257.171 17.456 255.939 17.064C254.735 16.672 253.629 16.168 252.621 15.552C251.613 14.936 250.787 14.124 250.143 13.116C249.527 12.108 249.219 10.82 249.219 9.252C249.219 7.572 249.667 6.046 250.563 4.674C251.487 3.274 252.859 2.168 254.679 1.356C256.527 0.515999 258.837 0.0959995 261.609 0.0959995C263.457 0.0959995 265.277 0.319999 267.069 0.767998C268.861 1.188 270.443 1.832 271.815 2.7L269.715 7.866C268.343 7.082 266.971 6.508 265.599 6.144C264.227 5.752 262.883 5.556 261.567 5.556C260.251 5.556 259.173 5.71 258.333 6.018C257.493 6.326 256.891 6.732 256.527 7.236C256.163 7.712 255.981 8.272 255.981 8.916C255.981 9.672 256.289 10.288 256.905 10.764C257.521 11.212 258.333 11.576 259.341 11.856C260.349 12.136 261.455 12.416 262.659 12.696C263.891 12.976 265.109 13.298 266.313 13.662C267.545 14.026 268.665 14.516 269.673 15.132C270.681 15.748 271.493 16.56 272.109 17.568C272.753 18.576 273.075 19.85 273.075 21.39C273.075 23.042 272.613 24.554 271.689 25.926C270.765 27.298 269.379 28.404 267.531 29.244C265.711 30.084 263.401 30.504 260.601 30.504ZM284.874 30V6.144H275.466V0.599998H301.086V6.144H291.678V30H284.874ZM300.877 30L313.981 0.599998H320.701L333.847 30H326.707L315.955 4.044H318.643L307.849 30H300.877ZM307.429 23.7L309.235 18.534H324.355L326.203 23.7H307.429ZM342.981 30V6.144H333.573V0.599998H359.193V6.144H349.785V30H342.981ZM376.893 30.504C372.721 30.504 369.459 29.342 367.107 27.018C364.755 24.694 363.579 21.376 363.579 17.064V0.599998H370.383V16.812C370.383 19.612 370.957 21.628 372.105 22.86C373.253 24.092 374.863 24.708 376.935 24.708C379.007 24.708 380.617 24.092 381.765 22.86C382.913 21.628 383.487 19.612 383.487 16.812V0.599998H390.207V17.064C390.207 21.376 389.031 24.694 386.679 27.018C384.327 29.342 381.065 30.504 376.893 30.504ZM404.659 12.444H418.813V17.736H404.659V12.444ZM405.163 24.54H421.165V30H398.401V0.599998H420.619V6.06H405.163V24.54ZM441.413 30V0.599998H454.139C456.771 0.599998 459.039 1.034 460.943 1.902C462.847 2.742 464.317 3.96 465.353 5.556C466.389 7.152 466.907 9.056 466.907 11.268C466.907 13.452 466.389 15.342 465.353 16.938C464.317 18.534 462.847 19.766 460.943 20.634C459.039 21.474 456.771 21.894 454.139 21.894H445.193L448.217 18.828V30H441.413ZM448.217 19.584L445.193 16.35H453.761C455.861 16.35 457.429 15.902 458.465 15.006C459.501 14.11 460.019 12.864 460.019 11.268C460.019 9.644 459.501 8.384 458.465 7.488C457.429 6.592 455.861 6.144 453.761 6.144H445.193L448.217 2.91V19.584ZM467.894 30L480.998 0.599998H487.718L500.864 30H493.724L482.972 4.044H485.66L474.866 30H467.894ZM474.446 23.7L476.252 18.534H491.372L493.22 23.7H474.446ZM519.044 30.504C516.776 30.504 514.662 30.14 512.702 29.412C510.77 28.656 509.09 27.592 507.662 26.22C506.234 24.848 505.114 23.238 504.302 21.39C503.518 19.542 503.126 17.512 503.126 15.3C503.126 13.088 503.518 11.058 504.302 9.21C505.114 7.362 506.234 5.752 507.662 4.38C509.118 3.008 510.812 1.958 512.744 1.23C514.676 0.473999 516.79 0.0959995 519.086 0.0959995C521.634 0.0959995 523.93 0.544 525.974 1.44C528.046 2.308 529.782 3.596 531.182 5.304L526.814 9.336C525.806 8.188 524.686 7.334 523.454 6.774C522.222 6.186 520.878 5.892 519.422 5.892C518.05 5.892 516.79 6.116 515.642 6.564C514.494 7.012 513.5 7.656 512.66 8.496C511.82 9.336 511.162 10.33 510.686 11.478C510.238 12.626 510.014 13.9 510.014 15.3C510.014 16.7 510.238 17.974 510.686 19.122C511.162 20.27 511.82 21.264 512.66 22.104C513.5 22.944 514.494 23.588 515.642 24.036C516.79 24.484 518.05 24.708 519.422 24.708C520.878 24.708 522.222 24.428 523.454 23.868C524.686 23.28 525.806 22.398 526.814 21.222L531.182 25.254C529.782 26.962 528.046 28.264 525.974 29.16C523.93 30.056 521.62 30.504 519.044 30.504ZM543.337 23.28L542.959 15.426L557.029 0.599998H564.589L551.905 14.25L548.125 18.282L543.337 23.28ZM537.247 30V0.599998H544.009V30H537.247ZM557.365 30L546.907 17.19L551.359 12.36L565.303 30H557.365Z" fill="url(#paint0_linear_437_307)"/>
<defs>
<linearGradient id="paint0_linear_437_307" x1="540.074" y1="37.0588" x2="514.821" y2="-98.3451" gradientUnits="userSpaceOnUse">
<stop stop-color="#FFE5A2"/>
<stop offset="0.505208" stop-color="#BF841A"/>
<stop offset="1" stop-color="#FFCD74"/>
</linearGradient>
</defs>
</svg>
