<svg width="190" height="21" viewBox="0 0 190 21" fill="none" xmlns="http://www.w3.org/2000/svg">
<path d="M0.324 20V0.399999H8.808C10.5627 0.399999 12.0747 0.689332 13.344 1.268C14.6133 1.828 15.5933 2.64 16.284 3.704C16.9747 4.768 17.32 6.03733 17.32 7.512C17.32 8.968 16.9747 10.228 16.284 11.292C15.5933 12.3373 14.6133 13.14 13.344 13.7C12.0747 14.26 10.5627 14.54 8.808 14.54H2.844L4.86 12.552V20H0.324ZM12.784 20L7.884 12.888H12.728L17.684 20H12.784ZM4.86 13.056L2.844 10.928H8.556C9.956 10.928 11.0013 10.6293 11.692 10.032C12.3827 9.416 12.728 8.576 12.728 7.512C12.728 6.42933 12.3827 5.58933 11.692 4.992C11.0013 4.39467 9.956 4.096 8.556 4.096H2.844L4.86 1.94V13.056ZM25.9258 8.296H35.3618V11.824H25.9258V8.296ZM26.2618 16.36H36.9298V20H21.7538V0.399999H36.5658V4.04H26.2618V16.36ZM50.759 20.336C49.247 20.336 47.8377 20.0933 46.531 19.608C45.243 19.104 44.123 18.3947 43.171 17.48C42.219 16.5653 41.4723 15.492 40.931 14.26C40.4083 13.028 40.147 11.6747 40.147 10.2C40.147 8.72533 40.4083 7.372 40.931 6.14C41.4723 4.908 42.219 3.83467 43.171 2.92C44.1417 2.00533 45.271 1.30533 46.559 0.819998C47.847 0.315999 49.2563 0.0639997 50.787 0.0639997C52.4857 0.0639997 54.0163 0.362666 55.379 0.96C56.7603 1.53867 57.9177 2.39733 58.851 3.536L55.939 6.224C55.267 5.45867 54.5203 4.88933 53.699 4.516C52.8777 4.124 51.9817 3.928 51.011 3.928C50.0963 3.928 49.2563 4.07733 48.491 4.376C47.7257 4.67467 47.063 5.104 46.503 5.664C45.943 6.224 45.5043 6.88667 45.187 7.652C44.8883 8.41733 44.739 9.26667 44.739 10.2C44.739 11.1333 44.8883 11.9827 45.187 12.748C45.5043 13.5133 45.943 14.176 46.503 14.736C47.063 15.296 47.7257 15.7253 48.491 16.024C49.2563 16.3227 50.0963 16.472 51.011 16.472C51.9817 16.472 52.8777 16.2853 53.699 15.912C54.5203 15.52 55.267 14.932 55.939 14.148L58.851 16.836C57.9177 17.9747 56.7603 18.8427 55.379 19.44C54.0163 20.0373 52.4763 20.336 50.759 20.336ZM66.9262 8.296H76.3622V11.824H66.9262V8.296ZM67.2622 16.36H77.9302V20H62.7542V0.399999H77.5662V4.04H67.2622V16.36ZM82.3793 20V0.399999H86.1313L97.6953 14.512H95.8753V0.399999H100.355V20H96.6313L85.0393 5.888H86.8593V20H82.3793ZM109.893 20V4.096H103.621V0.399999H120.701V4.096H114.429V20H109.893ZM132.751 20V0.399999H136.503L148.067 14.512H146.247V0.399999H150.727V20H147.003L135.411 5.888H137.231V20H132.751ZM160.404 9.22H169.812V12.86H160.404V9.22ZM160.74 20H156.204V0.399999H171.016V4.04H160.74V20ZM179.124 20V4.096H172.852V0.399999H189.932V4.096H183.66V20H179.124Z" fill="url(#paint0_linear_437_213)"/>
<defs>
<linearGradient id="paint0_linear_437_213" x1="182.485" y1="32.0588" x2="123.554" y2="-75.8799" gradientUnits="userSpaceOnUse">
<stop stop-color="#FFE5A2"/>
<stop offset="0.505208" stop-color="#BF841A"/>
<stop offset="1" stop-color="#FFCD74"/>
</linearGradient>
</defs>
</svg>
